<?xml version="1.0" encoding="UTF-8"?>
<!DOCTYPE svg PUBLIC "-//W3C//DTD SVG 1.1//EN" "http://www.w3.org/Graphics/SVG/1.1/DTD/svg11.dtd">
<svg xmlns="http://www.w3.org/2000/svg"
    xmlns:xlink="http://www.w3.org/1999/xlink" version="1.1" width="1000" height="1000" style="background-color: rgb(255, 255, 255);">
    <defs/>
    <g>
        <path d="M 500 100 L 314.1107311824926 145.81758973871604 L 170.80645364253746 272.77410130753765 L 102.91645036077841 451.7853278978708 L 125.9935029258341 641.8419548170142 L 234.75093670368193 799.4042992684405 L 404.2737342849769 888.3767269704208 L 595.7262657150229 888.3767269704208 L 765.249063296318 799.4042992684406 L 874.006497074166 641.8419548170143 L 897.0835496392216 451.78532789787073 L 829.1935463574628 272.7741013075381 L 685.8892688175074 145.81758973871598 L 500 100" fill="none" stroke="#DDD" stroke-width="2" stroke-miterlimit="10" pointer-events="stroke"/>
        <path d="M 500 500 L 500
         80" fill="none" stroke="#DDD" stroke-width="1" stroke-miterlimit="10" pointer-events="stroke"/>
        <path d="M 500 500 L 695.1837322583829
         128.10846922565185" fill="none" stroke="#DDD" stroke-width="1" stroke-miterlimit="10" pointer-events="stroke"/>
        <path d="M 500 500 L 845.6532236753357
         261.4128063729146" fill="none" stroke="#DDD" stroke-width="1" stroke-miterlimit="10" pointer-events="stroke"/>
        <path d="M 500 500 L 916.9377271211827
         449.37459429276424" fill="none" stroke="#DDD" stroke-width="1" stroke-miterlimit="10" pointer-events="stroke"/>
        <path d="M 500 500 L 892.7068219278742
         648.9340525578649" fill="none" stroke="#DDD" stroke-width="1" stroke-miterlimit="10" pointer-events="stroke"/>
        <path d="M 500 500 L 778.5115164611341
         814.3745142318623" fill="none" stroke="#DDD" stroke-width="1" stroke-miterlimit="10" pointer-events="stroke"/>
        <path d="M 500 500 L 600.5125790007744
         907.7955633189418" fill="none" stroke="#DDD" stroke-width="1" stroke-miterlimit="10" pointer-events="stroke"/>
        <path d="M 500 500 L 399.48742099922583
         907.795563318942" fill="none" stroke="#DDD" stroke-width="1" stroke-miterlimit="10" pointer-events="stroke"/>
        <path d="M 500 500 L 221.4884835388661
         814.3745142318626" fill="none" stroke="#DDD" stroke-width="1" stroke-miterlimit="10" pointer-events="stroke"/>
        <path d="M 500 500 L 107.29317807212578
         648.934052557865" fill="none" stroke="#DDD" stroke-width="1" stroke-miterlimit="10" pointer-events="stroke"/>
        <path d="M 500 500 L 83.06227287881728
         449.3745942927646" fill="none" stroke="#DDD" stroke-width="1" stroke-miterlimit="10" pointer-events="stroke"/>
        <path d="M 500 500 L 154.34677632466418
         261.41280637291464" fill="none" stroke="#DDD" stroke-width="1" stroke-miterlimit="10" pointer-events="stroke"/>
        <path d="M 500 500 L 304.81626774161697
         128.10846922565196" fill="none" stroke="#DDD" stroke-width="1" stroke-miterlimit="10" pointer-events="stroke"/>
        <path d="M 500 284 L 382.8897606449702 276.8650815353912" stroke="#001dbc" />
        <path d="M 682.1714834411573 152.90123794394168 L 500 284" stroke="#001dbc" />
        <path d="M 825.9016108938879 275.04636029446226 L 682.1714834411573 152.90123794394168" stroke="#001dbc" />
        <path d="M 623.0959003881587 485.05345164833994 L 825.9016108938879 275.04636029446226" stroke="#001dbc" />
        <path d="M 836.6058473667493 627.6577593353128 L 623.0959003881587 485.05345164833994" stroke="#001dbc" />
        <path d="M 693.6318162063122 718.5651384659615 L 836.6058473667493 627.6577593353128" stroke="#001dbc" />
        <path d="M 592.8544777435725 876.7254251613082 L 693.6318162063122 718.5651384659615" stroke="#001dbc" />
        <path d="M 426.2907753994323 799.0500797672241 L 592.8544777435725 876.7254251613082" stroke="#001dbc" />
        <path d="M 314.3256556925774 709.5830094879084 L 426.2907753994323 799.0500797672241" stroke="#001dbc" />
        <path d="M 268.11597181401714 587.9420119865489 L 314.3256556925774 709.5830094879084" stroke="#001dbc" />
        <path d="M 150.56647631748496 457.57108855012655 L 268.11597181401714 587.9420119865489" stroke="#001dbc" />
        <path d="M 246.52096930475378 325.03605800680407 L 150.56647631748496 457.57108855012655" stroke="#001dbc" />
        <path d="M 382.8897606449702 276.8650815353912 L 246.52096930475378 325.03605800680407" stroke="#001dbc" />
        <circle cx="500" cy="284" fill="#001dbc" r="3"/>
        <circle cx="682.1714834411573" cy="152.90123794394168" fill="#001dbc" r="3"/>
        <circle cx="825.9016108938879" cy="275.04636029446226" fill="#001dbc" r="3"/>
        <circle cx="623.0959003881587" cy="485.05345164833994" fill="#001dbc" r="3"/>
        <circle cx="836.6058473667493" cy="627.6577593353128" fill="#001dbc" r="3"/>
        <circle cx="693.6318162063122" cy="718.5651384659615" fill="#001dbc" r="3"/>
        <circle cx="592.8544777435725" cy="876.7254251613082" fill="#001dbc" r="3"/>
        <circle cx="426.2907753994323" cy="799.0500797672241" fill="#001dbc" r="3"/>
        <circle cx="314.3256556925774" cy="709.5830094879084" fill="#001dbc" r="3"/>
        <circle cx="268.11597181401714" cy="587.9420119865489" fill="#001dbc" r="3"/>
        <circle cx="150.56647631748496" cy="457.57108855012655" fill="#001dbc" r="3"/>
        <circle cx="246.52096930475378" cy="325.03605800680407" fill="#001dbc" r="3"/>
        <circle cx="382.8897606449702" cy="276.8650815353912" fill="#001dbc" r="3"/>
        <text x="500" y="80" font-size="15" text-anchor="middle" dominant-baseline="central" >エネルギー</text>
        <text x="695.1837322583829" y="128.10846922565185" font-size="15" text-anchor="middle" dominant-baseline="central" >たんぱく質</text>
        <text x="845.6532236753357" y="261.4128063729146" font-size="15" text-anchor="middle" dominant-baseline="central" >脂質</text>
        <text x="916.9377271211827" y="449.37459429276424" font-size="15" text-anchor="middle" dominant-baseline="central" >コレステロール</text>
        <text x="892.7068219278742" y="648.9340525578649" font-size="15" text-anchor="middle" dominant-baseline="central" >炭水化物</text>
        <text x="778.5115164611341" y="814.3745142318623" font-size="15" text-anchor="middle" dominant-baseline="central" >食塩相当量</text>
        <text x="600.5125790007744" y="907.7955633189418" font-size="15" text-anchor="middle" dominant-baseline="central" >カルシウム</text>
        <text x="399.48742099922583" y="907.795563318942" font-size="15" text-anchor="middle" dominant-baseline="central" >鉄</text>
        <text x="221.4884835388661" y="814.3745142318626" font-size="15" text-anchor="middle" dominant-baseline="central" >ビタミンA</text>
        <text x="107.29317807212578" y="648.934052557865" font-size="15" text-anchor="middle" dominant-baseline="central" >ビタミンB1</text>
        <text x="83.06227287881728" y="449.3745942927646" font-size="15" text-anchor="middle" dominant-baseline="central" >ビタミンB2</text>
        <text x="154.34677632466418" y="261.41280637291464" font-size="15" text-anchor="middle" dominant-baseline="central" >ナイアシン</text>
        <text x="304.81626774161697" y="128.10846922565196" font-size="15" text-anchor="middle" dominant-baseline="central" >ビタミンC</text>
    </g>
</svg>